<svg class="svg-icon" style="width: 1em; height: 1em;vertical-align: middle;fill: currentColor;overflow: hidden;" viewBox="0 0 1024 1024" version="1.1" xmlns="http://www.w3.org/2000/svg"><path d="M479.12 163.32c-105.04 0-190.52 85.46-190.52 190.52 0 105.04 85.48 190.52 190.52 190.52 0.66 0 1.32-0.02 1.98-0.04 0.04 0 0.08 0.02 0.14 0.02 0.04 0 0.1-0.02 0.16-0.02 104.02-1.22 188.24-86.2 188.24-190.48 0-105.06-85.46-190.52-190.52-190.52z m12.12 360.56v-71.26c52.38-5.04 93.48-49.3 93.48-103 0-57.06-46.42-103.48-103.48-103.48s-103.48 46.42-103.48 103.48c0 5.52 4.48 10 10 10s10-4.48 10-10c0-46.02 37.44-83.48 83.48-83.48s83.48 37.46 83.48 83.48-37.44 83.48-83.46 83.48h-0.02c-5.54 0-10 4.48-10 10v81.06c-90.38-4.16-162.64-78.96-162.64-170.32 0-94.04 76.5-170.52 170.52-170.52 94.04 0 170.52 76.48 170.52 170.52 0 89.94-70.02 163.8-158.4 170.04z" fill="#23130D" /><path d="M930.66 743.62h-0.02l-136.52-136.54V47.42c0-0.06 0.02-0.12 0.02-0.18 0-5.52-4.48-10-10-10H161.34h-0.02C116.8 37.24 80.58 73.48 80.58 118v729.3c0.02 44.52 36.24 80.74 80.76 80.74 0.04 0 0.08-0.02 0.12-0.02h69.62v48.74c0 3.82 2.16 7.28 5.56 8.98 3.42 1.68 7.5 1.28 10.52-1.04l70.6-54.06 70.6 54.06c1.78 1.36 3.92 2.06 6.08 2.06 1.5 0 3.02-0.34 4.42-1.02a10.014 10.014 0 0 0 5.58-8.98v-48.74h379.7c5.52 0 10-4.46 10-10 0-0.24-0.06-0.48-0.08-0.74 0.02-0.32 0.08-0.64 0.06-0.96a9.968 9.968 0 0 0-10.36-9.62c-0.76 0.02-1.5 0.04-2.26 0.04-32.46 0-59.48-25.8-60.68-58.52-0.6-16.22 5.16-31.7 16.2-43.6 8.66-9.32 19.78-15.54 31.98-18.1h9.94c0.9 0 1.76-0.14 2.58-0.38 0.84 0.24 1.7 0.38 2.6 0.38 5.52 0 10-4.46 10-10v-46.02l74.8 74.82 0.02 0.02c8.24 8.24 19.2 12.78 30.86 12.78s22.62-4.54 30.86-12.78c17.02-17.02 17.02-44.7 0-61.72z m-546.22 174.32c0 0.02-0.02 0.06-0.02 0.08 0 0.04 0.02 0.06 0.02 0.1v38.4l-60.6-46.42a10.02 10.02 0 0 0-12.16 0l-60.6 46.42v-38.48-0.02V856h133.36v61.94z m337.94-126.92c-14.7 15.8-22.34 36.38-21.54 57.94 0.88 23.82 12.06 44.88 29.1 59.06H404.44V856H655.2c5.52 0 10-4.48 10-10s-4.48-10-10-10H161.34c-5.52 0-10 4.48-10 10s4.48 10 10 10h69.74v52.02H161.34c-0.04 0-0.06 0.02-0.1 0.02-33.44-0.06-60.66-27.28-60.66-60.76 0-33.5 27.26-60.76 60.76-60.76h565.56c-1.56 1.44-3.08 2.92-4.52 4.5z m51.74-25.46c-2.4 0.22-4.76 0.54-7.1 0.96H161.34c-24.2 0-45.94 10.74-60.76 27.66V118c0-33.5 27.26-60.76 60.76-60.76h612.78v529.84l-49.96-49.94 23.9-23.9a9.97 9.97 0 0 0 0-14.14l-43.46-43.48c14.06-31.06 21.92-65.54 21.92-101.8 0-136.4-110.98-247.38-247.4-247.38-136.4 0-247.38 110.98-247.38 247.38 0 133.78 106.72 243.06 239.5 247.26v41.64c0 5.52 4.46 10 10 10 5.52 0 10-4.48 10-10v-41.8c31.82-1.54 62.1-9.14 89.7-21.64l43.46 43.48c1.88 1.86 4.42 2.92 7.08 2.92 2.64 0 5.2-1.06 7.06-2.92l23.92-23.92 111.66 111.66v55.06z m-79.04-291.18l31.78 31.78-23.88 23.88s-0.02 0-0.02 0.02c-0.02 0-0.02 0.02-0.04 0.04l-47.42 47.42c-0.04 0.02-0.08 0.06-0.12 0.1s-0.06 0.08-0.1 0.12l-23.8 23.8-31.78-31.78a249.014 249.014 0 0 0 95.38-95.38z m-215.96 106.84c-125.38 0-227.38-102.02-227.38-227.4s102-227.38 227.38-227.38 227.4 102 227.4 227.38-102.02 227.4-227.4 227.4z m437.4 209.98c-9.22 9.2-24.2 9.22-33.42 0.02l-0.02-0.02L676.6 584.7l33.42-33.42 206.5 206.48v0.02c9.22 9.22 9.2 24.2 0 33.42z" fill="#23130D" /><path d="M384.44 917.94c0 0.02-0.02 0.06-0.02 0.08 0 0.04 0.02 0.06 0.02 0.1v38.4l-60.6-46.42a10.02 10.02 0 0 0-12.16 0l-60.6 46.42v-38.48-0.02V856h133.36v61.94z" fill="#F9C139" /><path d="M384.44 895.94v0.18c0-0.04-0.02-0.06-0.02-0.1 0-0.02 0.02-0.06 0.02-0.08zM323.84 888.1l60.6 46.42v22l-60.6-46.42a10.02 10.02 0 0 0-12.16 0l-60.6 46.42v-22l60.6-46.42a10.02 10.02 0 0 1 12.16 0zM384.44 917.94v0.18c0-0.04-0.02-0.06-0.02-0.1 0-0.02 0.02-0.06 0.02-0.08z" fill="#FFFFFF" opacity=".4" /><path d="M665.2 846c0-5.52-4.48-10-10-10H161.34c-5.52 0-10 4.48-10 10s4.48 10 10 10h69.74v52.02H161.34c-0.04 0-0.06 0.02-0.1 0.02-33.44-0.06-60.66-27.28-60.66-60.76 0-33.5 27.26-60.76 60.76-60.76h565.56c-1.56 1.44-3.08 2.92-4.52 4.5-14.7 15.8-22.34 36.38-21.54 57.94 0.88 23.82 12.06 44.88 29.1 59.06H404.44V856H655.2c5.52 0 10-4.48 10-10z" fill="#E1E1E5" /><path d="M726.9 786.52c-1.56 1.44-3.08 2.92-4.52 4.5a80.86 80.86 0 0 0-11.34 15.5H176.34c-33.5 0-60.76 27.26-60.76 60.76 0 9.14 2.02 17.82 5.66 25.6-12.66-11.12-20.66-27.44-20.66-45.6 0-33.5 27.26-60.76 60.76-60.76h565.56zM729.94 908.02h-2.32c-0.86-1.4-1.68-2.84-2.48-4.32 1.54 1.5 3.14 2.94 4.8 4.32z" fill="#23130D" opacity=".2" /><path d="M916.52 791.2c-9.22 9.2-24.2 9.22-33.42 0.02l-0.02-0.02L676.6 584.7l33.42-33.42 206.5 206.48v0.02c9.22 9.22 9.2 24.2 0 33.42z" fill="#F8D3C9" /><path d="M916.52 791.2a24.012 24.012 0 0 1-8.42 5.42c3.16-8.4 1.36-18.26-5.4-25.02v-0.02L696.2 565.1l13.82-13.82 206.5 206.48v0.02c9.22 9.22 9.2 24.2 0 33.42z" fill="#23130D" opacity=".2" /><path d="M726.86 506.16l-23.88 23.88s-0.02 0-0.02 0.02c-0.02 0-0.02 0.02-0.04 0.04l-47.42 47.42c-0.04 0.02-0.08 0.06-0.12 0.1s-0.06 0.08-0.1 0.12l-23.8 23.8-31.78-31.78a249.014 249.014 0 0 0 95.38-95.38l31.78 31.78z" fill="#E59D89" /><path d="M708.4 487.7a249.014 249.014 0 0 1-95.38 95.38l-13.32-13.32a249.014 249.014 0 0 0 95.38-95.38l13.32 13.32z" fill="#23130D" opacity=".2" /><path d="M479.12 126.44c-125.38 0-227.38 102-227.38 227.38s102 227.4 227.38 227.4 227.4-102.02 227.4-227.4-102.02-227.38-227.4-227.38z m2.28 417.88c-0.06 0-0.12 0.02-0.16 0.02-0.06 0-0.1-0.02-0.14-0.02-0.66 0.02-1.32 0.04-1.98 0.04-105.04 0-190.52-85.48-190.52-190.52 0-105.06 85.48-190.52 190.52-190.52 105.06 0 190.52 85.46 190.52 190.52 0 104.28-84.22 189.26-188.24 190.48z" fill="#F9C139" /><path d="M479.12 134.44c120.978 0 219.4 98.414 219.4 219.38 0 120.978-98.422 219.4-219.4 219.4-120.966 0-219.38-98.422-219.38-219.4 0-120.966 98.414-219.38 219.38-219.38m0 417.92c0.462 0 0.926-0.008 1.388-0.02h0.732c0.216 0 0.43-0.008 0.644-0.026 107.974-1.48 195.756-90.434 195.756-198.474 0-109.464-89.056-198.52-198.52-198.52s-198.52 89.056-198.52 198.52 89.056 198.52 198.52 198.52m0-425.92c-125.38 0-227.38 102-227.38 227.38s102 227.4 227.38 227.4 227.4-102.02 227.4-227.4-102.02-227.38-227.4-227.38z m0 417.92c-105.04 0-190.52-85.48-190.52-190.52 0-105.06 85.48-190.52 190.52-190.52 105.06 0 190.52 85.46 190.52 190.52 0 104.28-84.22 189.26-188.24 190.48-0.06 0-0.12 0.02-0.16 0.02-0.06 0-0.1-0.02-0.14-0.02-0.66 0.02-1.32 0.04-1.98 0.04z" opacity=".2" /><path d="M649.64 353.84c0 89.94-70.02 163.8-158.4 170.04v-71.26c52.38-5.04 93.48-49.3 93.48-103 0-57.06-46.42-103.48-103.48-103.48s-103.48 46.42-103.48 103.48c0 5.52 4.48 10 10 10s10-4.48 10-10c0-46.02 37.44-83.48 83.48-83.48s83.48 37.46 83.48 83.48-37.44 83.48-83.46 83.48h-0.02c-5.54 0-10 4.48-10 10v81.06c-90.38-4.16-162.64-78.96-162.64-170.32 0-94.04 76.5-170.52 170.52-170.52 94.04 0 170.52 76.48 170.52 170.52z" fill="#E1E1E5" /><path d="M724.16 537.14l49.96 49.94V57.24H161.36h-0.02c-33.5 0-60.76 27.26-60.76 60.76v676.18c14.82-16.92 36.56-27.66 60.76-27.66h605.68c2.34-0.42 4.7-0.74 7.1-0.96v-55.06l-111.66-111.66-23.92 23.92c-1.86 1.86-4.42 2.92-7.06 2.92-2.66 0-5.2-1.06-7.08-2.92l-43.46-43.48a245.888 245.888 0 0 1-89.7 21.64v41.8c0 5.52-4.48 10-10 10-5.54 0-10-4.48-10-10v-41.64c-132.78-4.2-239.5-113.48-239.5-247.26 0-136.4 110.98-247.38 247.38-247.38 136.42 0 247.4 110.98 247.4 247.38 0 36.26-7.86 70.74-21.92 101.8l43.46 43.48a9.97 9.97 0 0 1 0 14.14l-23.9 23.9z m-242.24 131.88c19.04 0 34.54 15.5 34.54 34.56 0 19.06-15.5 34.56-34.54 34.56-19.06 0-34.56-15.5-34.56-34.56 0-19.06 15.5-34.56 34.56-34.56z" fill="#CC7B5A" /><path d="M161.36 57.24h-0.02c-33.5 0-60.76 27.26-60.76 60.76v676.18c6.8-7.74 15.02-14.2 24.28-18.92V142.28c0-33.5 27.26-60.76 60.76-60.76h588.5V57.24H161.36z" fill="#23130D" opacity=".2" /><path d="M481.92 669.02c-19.06 0-34.56 15.5-34.56 34.56 0 19.06 15.5 34.56 34.56 34.56 19.04 0 34.54-15.5 34.54-34.56 0-19.06-15.5-34.56-34.54-34.56z m0 49.12c-8.04 0-14.56-6.54-14.56-14.56s6.52-14.56 14.56-14.56c8.02 0 14.54 6.54 14.54 14.56s-6.52 14.56-14.54 14.56z" fill="#23130D" /><path d="M496.46 703.58c0 8.02-6.52 14.56-14.54 14.56-8.04 0-14.56-6.54-14.56-14.56s6.52-14.56 14.56-14.56c8.02 0 14.54 6.54 14.54 14.56z" fill="#E1E1E5" /></svg>