<?xml version="1.0" encoding="UTF-8" standalone="no"?>
<!-- Created with Inkscape (http://www.inkscape.org/) -->

<svg
   xmlns:dc="http://purl.org/dc/elements/1.1/"
   xmlns:cc="http://creativecommons.org/ns#"
   xmlns:rdf="http://www.w3.org/1999/02/22-rdf-syntax-ns#"
   xmlns:svg="http://www.w3.org/2000/svg"
   xmlns="http://www.w3.org/2000/svg"
   xmlns:sodipodi="http://sodipodi.sourceforge.net/DTD/sodipodi-0.dtd"
   xmlns:inkscape="http://www.inkscape.org/namespaces/inkscape"
   width="178.84528"
   height="199.99988"
   viewBox="0 0 178.84527 199.99988"
   id="svg6502"
   version="1.1"
   inkscape:version="0.91 r13725"
   sodipodi:docname="teaching_icon.svg">
  <defs
     id="defs6504" />
  <sodipodi:namedview
     id="base"
     pagecolor="#ffffff"
     bordercolor="#666666"
     borderopacity="1.0"
     inkscape:pageopacity="0.0"
     inkscape:pageshadow="2"
     inkscape:zoom="0.35"
     inkscape:cx="10.136922"
     inkscape:cy="325.71422"
     inkscape:document-units="px"
     inkscape:current-layer="layer1"
     showgrid="false"
     fit-margin-top="20"
     fit-margin-left="20"
     fit-margin-right="20"
     fit-margin-bottom="20"
     units="px"
     inkscape:window-width="1366"
     inkscape:window-height="705"
     inkscape:window-x="-8"
     inkscape:window-y="-8"
     inkscape:window-maximized="1" />
  <metadata
     id="metadata6507">
    <rdf:RDF>
      <cc:Work
         rdf:about="">
        <dc:format>image/svg+xml</dc:format>
        <dc:type
           rdf:resource="http://purl.org/dc/dcmitype/StillImage" />
        <dc:title></dc:title>
      </cc:Work>
    </rdf:RDF>
  </metadata>
  <g
     inkscape:label="Layer 1"
     inkscape:groupmode="layer"
     id="layer1"
     transform="translate(23.708352,-658.07655)">
    <path
       style="fill:#dc0000;fill-opacity:1"
       d="m 32.499472,837.16945 c 4.62916,-0.8286 7.89287,-1.9855 8.92814,-3.1647 l 0.83346,-0.9493 0.78792,0.8846 c 4.35048,4.8842 33.81717,5.6685 42.80953,1.1394 1.05876,-0.5332 2.02291,-1.2244 2.1424,-1.536 0.16589,-0.4321 0.42327,-0.332 1.08473,0.422 1.07251,1.2226 4.28567,2.3656 9.174536,3.2636 5.210042,0.957 20.552372,0.9573 26.080302,5e-4 4.71738,-0.8165 7.90421,-1.9589 9.1429,-3.2775 0.78895,-0.8397 0.88822,-1.2549 0.6739,-2.8182 -0.82931,-6.0507 -8.0987,-13.4336 -15.58095,-15.8241 l -1.47331,-0.4707 1.78044,-1.6412 c 1.08472,-0.9998 2.36618,-2.8259 3.27927,-4.6726 1.29069,-2.6108 1.51804,-3.4888 1.63855,-6.3258 0.12327,-2.9008 0.009,-3.5864 -0.95717,-5.7392 -1.26131,-2.8104 -3.73462,-5.304 -6.53614,-6.5899 -2.77673,-1.2744 -7.5851,-1.2234 -10.29295,0.1091 -2.55695,1.2583 -4.984,3.6936 -6.219712,6.241 -0.78894,1.6266 -0.97687,2.6523 -0.99258,5.4174 -0.0174,3.122 0.10567,3.673 1.456362,6.5035 0.87149,1.8262 2.2272,3.844 3.31106,4.9278 1.52974,1.5297 1.71818,1.8734 1.13171,2.0633 -7.479492,2.4216 -13.584948,7.8125 -15.752288,13.9084 -0.4091,1.1506 -0.75702,1.8002 -0.77317,1.4436 -0.016,-0.3565 -0.66327,-1.9155 -1.43811,-3.4643 -1.01207,-2.0232 -2.23105,-3.5971 -4.32938,-5.5903 -3.4216,-3.2502 -5.3416,-4.423 -10.06225,-6.1462 l -1.15324,-0.421 2.01185,-2.1273 c 6.04684,-6.3935 6.37048,-14.905 0.77208,-20.3055 -1.16102,-1.12 -1.71942,-1.9416 -1.50008,-2.2072 0.19215,-0.2325 2.90153,-9.9936 6.02088,-21.6912 3.11927,-11.6977 5.85803,-21.8554 6.08618,-22.5727 l 0.41462,-1.3042 4.58378,0 4.58378,0 0,16.2523 c 0,15.7172 0.0269,16.2787 0.80255,17.0549 0.44589,0.4459 1.337666,0.8025 2.006466,0.8025 0.6688,0 1.56051,-0.3566 2.00647,-0.8025 0.77615,-0.7762 0.80255,-1.3377 0.80255,-17.0549 l 0,-16.2523 4.603632,0 4.60364,0 0.59535,2.1067 c 0.32741,1.1588 3.05418,11.3165 6.05927,22.5727 3.00516,11.2562 5.74989,20.7819 6.09942,21.1681 1.35316,1.4955 4.52392,0.2885 4.52392,-1.7224 0,-0.596 -9.69949,-37.5914 -11.48981,-43.8242 -0.18713,-0.6513 0.35425,-0.7022 7.46974,-0.7022 8.29898,0 8.8824,-0.1214 10.9168,-2.2716 0.59287,-0.6267 1.27011,-1.6478 1.50487,-2.2691 0.68902,-1.8237 0.58197,-47.2817 -0.11534,-48.9505 -0.71666,-1.7152 -3.07847,-3.7469 -4.96466,-4.2706 -0.92501,-0.2569 -7.0288,-0.4218 -15.66131,-0.4232 l -14.145522,0 0,-3.0279 c 0,-2.6798 -0.11324,-3.1412 -0.98495,-4.0129 -1.29345,-1.2934 -2.748936,-1.2657 -3.801446,0.073 -0.66938,0.851 -0.83164,1.6307 -0.83164,3.9947 l 0,2.9372 -14.94814,0.1186 -14.94808,0.1186 -1.86763,1.0979 c -1.29688,0.7624 -2.12459,1.6288 -2.70873,2.8354 -0.796,1.6444 -0.84109,2.3758 -0.84109,13.6496 0,6.5516 -0.0509,11.9121 -0.11287,11.9121 -0.0625,0 -3.35768,-1.0931 -7.32357,-2.4289 -8.45513,-2.848 -16.57709,-5.0107 -20.27127,-5.3978 -3.87404,-0.4059 -3.83367,-0.6391 -2.15098,12.4157 l 1.38007,10.7069 -1.44356,2.5814 c -0.79397,1.4197 -1.57251,2.661 -1.72997,2.7584 -0.1576,0.097 -0.97534,-1.12 -1.81738,-2.7052 l -1.53105,-2.8821 1.36334,-10.5266 c 1.65033,-12.7425 1.64102,-12.7995 -2.01214,-12.3549 -6.33615,0.7714 -13.9265498,2.9445 -15.2664798,4.3708 -0.75047,0.7988 -1.52713,3.7277 -4.2864,16.1638 -1.85346,8.3535 -3.37353005,15.6987 -3.37811005,16.3226 -0.007,0.7263 0.41382,1.5564 1.16480005,2.3074 1.5248,1.5248 3.87484,1.6251 5.49156,0.2344 1.00182,-0.8617 1.34663,-2.0827 4.2092398,-14.9079 1.80459,-8.0844 3.34073,-14.107 3.6464,-14.2959 0.43259,-0.2675 0.54713,2.4148 0.63244,14.8076 0.10022,14.5691 0.0451,15.8608 -1.48254,34.5968 -1.56088,19.147 -1.5747,19.4872 -0.85171,20.9776 0.72029,1.4849 0.71912,1.5234 -0.0575,1.9393 -1.66298,0.8899 -4.0364398,3.3964 -5.0648798,5.3487 -0.94261,1.7892 -1.07069,2.4897 -1.07236,5.865 0,3.6196 0.0815,4.0019 1.49673,6.8655 0.9136,1.8484 2.1939598,3.6732 3.2792698,4.6736 l 1.78044,1.6411 -1.47338,0.4709 c -7.5490998,2.4118 -14.8702598,9.918 -15.5885098,15.9824 -0.20859,1.7611 -0.1336,1.9739 1.04458,2.9653 1.60624995,1.3515 5.23185,2.4738 9.86022,3.052 1.9864,0.2481 4.1533798,0.5259 4.8154898,0.6173 2.73542,0.3776 17.01912,-0.1529 20.39702,-0.7576 z m 9.51491,-6.6384 c -0.0356,-1.3588 -2.02895,-5.2023 -3.85419,-7.4297 -2.72785,-3.3289 -7.35381,-6.3193 -12.41389,-8.0246 -0.77163,-0.2601 -0.76502,-0.296 0.17244,-0.932 2.94778,-2.0002 6.04764,-8.3951 6.04764,-12.4762 0,-5.4951 -3.65128,-10.5492 -8.7768,-12.1489 -1.21557,-0.3794 -1.60168,-0.6833 -1.42684,-1.1232 0.4104,-1.0328 0.56153,-2.5827 1.78058,-18.2598 0.65207,-8.387 1.29222,-16.2423 1.42233,-17.4562 l 0.23673,-2.2071 1.97745,0 c 1.27302,0 1.97745,0.1687 1.97745,0.479 0,1.2297 2.82066,35.3891 3.01491,36.5125 0.31142,1.8003 2.61709,3.7426 4.44291,3.7426 1.69077,0 3.49789,-0.8686 4.35593,-2.0934 0.88669,-1.2662 0.82756,-2.7883 -0.97884,-25.1946 -1.4304,-17.7424 -1.60167,-21.2705 -1.60334,-33.0333 0,-12.3606 0.0414,-13.1555 0.70043,-12.9451 0.38626,0.1233 4.9459,1.6404 10.13259,3.3714 l 9.43032,3.1471 0.20066,7.5909 c 0.21098,7.9818 0.31091,8.4327 2.27287,10.2506 2.1304,1.9738 2.74895,2.1104 10.60538,2.3394 l 7.4608,0.2177 -5.85563,21.9199 -5.85564,21.92 -2.85324,0.2162 c -8.09389,0.6132 -13.30654,7.611 -11.61578,15.5934 0.73913,3.4894 1.86517,5.6243 4.35557,8.2574 1.99527,2.1098 2.01709,2.1594 1.06101,2.4096 -2.37498,0.621 -7.41287,3.56 -9.64523,5.6267 -2.98131,2.7602 -4.67157,5.167 -5.84546,8.3234 -0.61469,1.6531 -0.90523,2.0965 -0.92312,1.4091 z m 21.4341,-90.9511 c -0.95803,-1.0339 -0.984,-1.2289 -0.984,-7.392 l 0,-6.3302 1.19302,-0.2621 c 1.66029,-0.3646 3.22117,-2.332 3.22117,-4.0602 0,-1.8751 -0.93389,-3.1708 -2.83288,-3.9307 l -1.58131,-0.6327 0,-12.354 c 0,-13.7898 -0.007,-13.7643 2.72059,-14.5212 2.05898,-0.5718 61.532288,-0.5689 63.592138,0.01 2.78655,0.7739 2.70938,0.054 2.70938,25.2669 0,23.1068 -0.0298,23.5777 -1.5704,24.7605 -0.48807,0.3748 -8.2053,0.4918 -33.060212,0.5016 l -32.423346,0.012 -0.98415,-1.0619 z m -32.68545,-33.6502 c 1.97455,-1.0211 4.04691,-3.3944 5.29753,-6.0669 3.54145,-7.568 -1.07222,-15.5281 -9.00349,-15.5339 -6.04364,-0.01 -10.94415,5.5748 -10.15244,11.5587 0.65207,4.9288 4.028,9.3498 8.14502,10.6667 1.42953,0.4571 4.20902,0.1533 5.71338,-0.6246 z"
       id="path4180-2-3-7-7-3"
       inkscape:connector-curvature="0"
       sodipodi:nodetypes="cccssccsccsscscccssccscscccsscsscsccccscscsccccscscsssssccsssscccccssssscscscsscscssscssscccsscscssscccssssscscccscscsccscssscccsssssccccscssscsccscscccascssa" />
  </g>
</svg>
